<svg width="144" height="48" viewBox="0 0 144 48" fill="none" xmlns="http://www.w3.org/2000/svg">
<rect width="144" height="48" rx="4" fill="#8DD3BB"/>
<path d="M29.9925 17.0715L29.9925 17.0715L17.4916 21.8031L17.4833 21.8062V21.8054C17.3462 21.8595 17.2287 21.954 17.1466 22.0765C17.0632 22.2008 17.0203 22.3477 17.0236 22.4973C17.0269 22.6469 17.0763 22.7917 17.1651 22.9122C17.2538 23.0326 17.3775 23.1227 17.5193 23.1702C17.5193 23.1702 17.5194 23.1702 17.5195 23.1702L17.5319 23.1742L17.5341 23.1748L17.534 23.1749L21.8235 25.0066C21.9029 25.0305 21.9872 25.0332 22.068 25.0146C22.1492 24.9958 22.2241 24.9561 22.2851 24.8993L29.1708 18.4834C29.1709 18.4833 29.171 18.4832 29.1711 18.4831C29.1937 18.4605 29.2205 18.4426 29.25 18.4304C29.2797 18.4181 29.3115 18.4118 29.3436 18.4118C29.3757 18.4118 29.4075 18.4181 29.4371 18.4304C29.4668 18.4427 29.4937 18.4607 29.5164 18.4834C29.5391 18.5061 29.5571 18.533 29.5694 18.5627C29.5817 18.5923 29.588 18.6241 29.588 18.6562C29.588 18.6883 29.5817 18.7201 29.5694 18.7497C29.5572 18.7792 29.5393 18.8061 29.5167 18.8287C29.5166 18.8288 29.5165 18.8289 29.5164 18.829L23.1001 25.7115L29.9925 17.0715ZM29.9925 17.0715C30.1235 17.0217 30.266 17.0109 30.4029 17.0402C30.5399 17.0695 30.6654 17.1378 30.7645 17.2368M29.9925 17.0715L30.7645 17.2368M30.7645 17.2368C30.8636 17.3363 30.9317 17.4623 30.9607 17.5997C30.9896 17.7371 30.9781 17.8799 30.9276 18.0109L30.9276 18.011L26.1968 30.5081L30.7645 17.2368ZM25.4686 30.9999H25.4998C25.6543 31.0008 25.8054 30.9552 25.9336 30.8691C26.0618 30.7829 26.1611 30.6602 26.2186 30.5168L26.1967 30.5085L26.1967 30.5083C26.141 30.6472 26.0447 30.7661 25.9205 30.8496C25.7962 30.9331 25.6497 30.9774 25.5 30.9765H25.4998H25.4691M25.4686 30.9999L25.4696 30.9765C25.4695 30.9765 25.4693 30.9765 25.4691 30.9765M25.4686 30.9999V30.9765H25.4691M25.4686 30.9999C25.1626 30.9862 24.9095 30.7818 24.8095 30.4921C24.8073 30.4862 24.8055 30.4806 24.8036 30.4743L22.9708 26.1812M25.4691 30.9765C25.1738 30.963 24.9287 30.7657 24.8317 30.4845L24.8315 30.484C24.8295 30.4786 24.8278 30.4734 24.826 30.4676L24.8262 30.4675L24.8251 30.4651L22.9928 26.1732M22.9928 26.1732C22.9929 26.1736 22.9931 26.174 22.9932 26.1744L22.9708 26.1812M22.9928 26.1732C22.969 26.0938 22.9662 26.0095 22.9849 25.9287C23.0036 25.8475 23.0434 25.7726 23.1001 25.7115L22.962 25.9234C22.9424 26.0086 22.9454 26.0975 22.9708 26.1812M22.9928 26.1732L22.9923 26.172L22.9708 26.1812" fill="black" stroke="#112211" stroke-width="0.046875"/>
<path d="M40.326 29.612C39.5793 29.612 38.8653 29.5 38.184 29.276C37.5027 29.0427 36.966 28.744 36.574 28.38L37.092 27.288C37.4653 27.6147 37.9413 27.8853 38.52 28.1C39.0987 28.3147 39.7007 28.422 40.326 28.422C40.8953 28.422 41.3573 28.3567 41.712 28.226C42.0667 28.0953 42.328 27.918 42.496 27.694C42.664 27.4607 42.748 27.1993 42.748 26.91C42.748 26.574 42.636 26.3033 42.412 26.098C42.1973 25.8927 41.9127 25.7293 41.558 25.608C41.2127 25.4773 40.83 25.3653 40.41 25.272C39.99 25.1787 39.5653 25.0713 39.136 24.95C38.716 24.8193 38.3287 24.656 37.974 24.46C37.6287 24.264 37.3487 24.0027 37.134 23.676C36.9193 23.34 36.812 22.9107 36.812 22.388C36.812 21.884 36.9427 21.422 37.204 21.002C37.4747 20.5727 37.8853 20.232 38.436 19.98C38.996 19.7187 39.7053 19.588 40.564 19.588C41.1333 19.588 41.698 19.6627 42.258 19.812C42.818 19.9613 43.3033 20.176 43.714 20.456L43.252 21.576C42.832 21.296 42.3887 21.0953 41.922 20.974C41.4553 20.8433 41.0027 20.778 40.564 20.778C40.0133 20.778 39.5607 20.848 39.206 20.988C38.8513 21.128 38.59 21.3147 38.422 21.548C38.2633 21.7813 38.184 22.0427 38.184 22.332C38.184 22.6773 38.2913 22.9527 38.506 23.158C38.73 23.3633 39.0147 23.5267 39.36 23.648C39.7147 23.7693 40.102 23.8813 40.522 23.984C40.942 24.0773 41.362 24.1847 41.782 24.306C42.2113 24.4273 42.5987 24.586 42.944 24.782C43.2987 24.978 43.5833 25.2393 43.798 25.566C44.0127 25.8927 44.12 26.3127 44.12 26.826C44.12 27.3207 43.9847 27.7827 43.714 28.212C43.4433 28.632 43.0233 28.9727 42.454 29.234C41.894 29.486 41.1847 29.612 40.326 29.612ZM49.9313 22.01C50.538 22.01 51.07 22.1267 51.5273 22.36C51.994 22.5933 52.358 22.948 52.6193 23.424C52.8806 23.9 53.0113 24.502 53.0113 25.23V29.5H51.6673V25.384C51.6673 24.6653 51.49 24.124 51.1353 23.76C50.79 23.396 50.3 23.214 49.6653 23.214C49.1893 23.214 48.774 23.3073 48.4193 23.494C48.0646 23.6807 47.7893 23.956 47.5933 24.32C47.4066 24.684 47.3133 25.1367 47.3133 25.678V29.5H45.9693V19.112H47.3133V24.082L47.0473 23.55C47.29 23.0647 47.6633 22.6867 48.1673 22.416C48.6713 22.1453 49.2593 22.01 49.9313 22.01ZM58.6766 29.584C57.9299 29.584 57.2673 29.4207 56.6886 29.094C56.1099 28.7673 55.6526 28.3193 55.3166 27.75C54.9806 27.1713 54.8126 26.518 54.8126 25.79C54.8126 25.0527 54.9806 24.3993 55.3166 23.83C55.6526 23.2607 56.1099 22.8173 56.6886 22.5C57.2673 22.1733 57.9299 22.01 58.6766 22.01C59.4139 22.01 60.0719 22.1733 60.6506 22.5C61.2386 22.8173 61.6959 23.2607 62.0226 23.83C62.3586 24.39 62.5266 25.0433 62.5266 25.79C62.5266 26.5273 62.3586 27.1807 62.0226 27.75C61.6959 28.3193 61.2386 28.7673 60.6506 29.094C60.0719 29.4207 59.4139 29.584 58.6766 29.584ZM58.6766 28.408C59.1526 28.408 59.5773 28.3007 59.9506 28.086C60.3333 27.8713 60.6319 27.568 60.8466 27.176C61.0613 26.7747 61.1686 26.3127 61.1686 25.79C61.1686 25.258 61.0613 24.8007 60.8466 24.418C60.6319 24.026 60.3333 23.7227 59.9506 23.508C59.5773 23.2933 59.1526 23.186 58.6766 23.186C58.2006 23.186 57.7759 23.2933 57.4026 23.508C57.0293 23.7227 56.7306 24.026 56.5066 24.418C56.2826 24.8007 56.1706 25.258 56.1706 25.79C56.1706 26.3127 56.2826 26.7747 56.5066 27.176C56.7306 27.568 57.0293 27.8713 57.4026 28.086C57.7759 28.3007 58.2006 28.408 58.6766 28.408ZM65.7483 29.5L62.9903 22.08H64.2643L66.7143 28.8H66.1123L68.6603 22.08H69.7943L72.2863 28.8H71.6983L74.2043 22.08H75.4083L72.6363 29.5H71.3483L69.0103 23.368H69.4023L67.0363 29.5H65.7483ZM81.9878 24.334H87.0418V25.538H81.9878V24.334ZM82.1278 29.5H80.7278V19.7H87.6438V20.918H82.1278V29.5ZM89.4185 29.5V22.08H90.7625V29.5H89.4185ZM90.0905 20.652C89.8292 20.652 89.6099 20.568 89.4325 20.4C89.2645 20.232 89.1805 20.0267 89.1805 19.784C89.1805 19.532 89.2645 19.322 89.4325 19.154C89.6099 18.986 89.8292 18.902 90.0905 18.902C90.3519 18.902 90.5665 18.986 90.7345 19.154C90.9119 19.3127 91.0005 19.5133 91.0005 19.756C91.0005 20.008 90.9165 20.2227 90.7485 20.4C90.5805 20.568 90.3612 20.652 90.0905 20.652ZM93.3287 29.5V19.112H94.6727V29.5H93.3287ZM100.487 32.3C99.8055 32.3 99.1428 32.202 98.4988 32.006C97.8642 31.8193 97.3462 31.5487 96.9448 31.194L97.5888 30.158C97.9342 30.4567 98.3588 30.69 98.8628 30.858C99.3668 31.0353 99.8942 31.124 100.445 31.124C101.322 31.124 101.966 30.9187 102.377 30.508C102.788 30.0973 102.993 29.472 102.993 28.632V27.064L103.133 25.594L103.063 24.11V22.08H104.337V28.492C104.337 29.7987 104.01 30.76 103.357 31.376C102.704 31.992 101.747 32.3 100.487 32.3ZM100.319 29.192C99.6002 29.192 98.9562 29.0427 98.3868 28.744C97.8268 28.436 97.3788 28.0113 97.0428 27.47C96.7162 26.9287 96.5528 26.3033 96.5528 25.594C96.5528 24.8753 96.7162 24.25 97.0428 23.718C97.3788 23.1767 97.8268 22.7567 98.3868 22.458C98.9562 22.1593 99.6002 22.01 100.319 22.01C100.954 22.01 101.532 22.1407 102.055 22.402C102.578 22.654 102.993 23.046 103.301 23.578C103.618 24.11 103.777 24.782 103.777 25.594C103.777 26.3967 103.618 27.064 103.301 27.596C102.993 28.128 102.578 28.5293 102.055 28.8C101.532 29.0613 100.954 29.192 100.319 29.192ZM100.473 28.016C100.968 28.016 101.406 27.9133 101.789 27.708C102.172 27.5027 102.47 27.218 102.685 26.854C102.909 26.49 103.021 26.07 103.021 25.594C103.021 25.118 102.909 24.698 102.685 24.334C102.47 23.97 102.172 23.69 101.789 23.494C101.406 23.2887 100.968 23.186 100.473 23.186C99.9782 23.186 99.5348 23.2887 99.1428 23.494C98.7602 23.69 98.4568 23.97 98.2328 24.334C98.0182 24.698 97.9108 25.118 97.9108 25.594C97.9108 26.07 98.0182 26.49 98.2328 26.854C98.4568 27.218 98.7602 27.5027 99.1428 27.708C99.5348 27.9133 99.9782 28.016 100.473 28.016ZM110.867 22.01C111.474 22.01 112.006 22.1267 112.463 22.36C112.93 22.5933 113.294 22.948 113.555 23.424C113.816 23.9 113.947 24.502 113.947 25.23V29.5H112.603V25.384C112.603 24.6653 112.426 24.124 112.071 23.76C111.726 23.396 111.236 23.214 110.601 23.214C110.125 23.214 109.71 23.3073 109.355 23.494C109 23.6807 108.725 23.956 108.529 24.32C108.342 24.684 108.249 25.1367 108.249 25.678V29.5H106.905V19.112H108.249V24.082L107.983 23.55C108.226 23.0647 108.599 22.6867 109.103 22.416C109.607 22.1453 110.195 22.01 110.867 22.01ZM118.982 29.584C118.235 29.584 117.657 29.3833 117.246 28.982C116.835 28.5807 116.63 28.0067 116.63 27.26V20.456H117.974V27.204C117.974 27.6053 118.072 27.9133 118.268 28.128C118.473 28.3427 118.763 28.45 119.136 28.45C119.556 28.45 119.906 28.3333 120.186 28.1L120.606 29.066C120.401 29.2433 120.153 29.374 119.864 29.458C119.584 29.542 119.29 29.584 118.982 29.584ZM115.37 23.186V22.08H120.102V23.186H115.37ZM124.359 29.584C123.743 29.584 123.155 29.5 122.595 29.332C122.044 29.164 121.61 28.9587 121.293 28.716L121.853 27.652C122.17 27.8667 122.562 28.0487 123.029 28.198C123.496 28.3473 123.972 28.422 124.457 28.422C125.082 28.422 125.53 28.3333 125.801 28.156C126.081 27.9787 126.221 27.7313 126.221 27.414C126.221 27.1807 126.137 26.9987 125.969 26.868C125.801 26.7373 125.577 26.6393 125.297 26.574C125.026 26.5087 124.723 26.4527 124.387 26.406C124.051 26.35 123.715 26.2847 123.379 26.21C123.043 26.126 122.735 26.014 122.455 25.874C122.175 25.7247 121.951 25.524 121.783 25.272C121.615 25.0107 121.531 24.6653 121.531 24.236C121.531 23.788 121.657 23.396 121.909 23.06C122.161 22.724 122.516 22.4673 122.973 22.29C123.44 22.1033 123.99 22.01 124.625 22.01C125.11 22.01 125.6 22.0707 126.095 22.192C126.599 22.304 127.01 22.4673 127.327 22.682L126.753 23.746C126.417 23.522 126.067 23.368 125.703 23.284C125.339 23.2 124.975 23.158 124.611 23.158C124.023 23.158 123.584 23.256 123.295 23.452C123.006 23.6387 122.861 23.8813 122.861 24.18C122.861 24.432 122.945 24.628 123.113 24.768C123.29 24.8987 123.514 25.0013 123.785 25.076C124.065 25.1507 124.373 25.216 124.709 25.272C125.045 25.3187 125.381 25.384 125.717 25.468C126.053 25.5427 126.356 25.65 126.627 25.79C126.907 25.93 127.131 26.126 127.299 26.378C127.476 26.63 127.565 26.966 127.565 27.386C127.565 27.834 127.434 28.2213 127.173 28.548C126.912 28.8747 126.543 29.1313 126.067 29.318C125.591 29.4953 125.022 29.584 124.359 29.584Z" fill="#112211"/>
</svg>
