<svg width="15" height="19" viewBox="0 0 15 19" fill="none" xmlns="http://www.w3.org/2000/svg">
<path d="M3.95783 3.95903C3.24283 3.24403 3.24283 2.07986 3.95783 1.36486C4.67283 0.649863 5.83699 0.649863 6.55199 1.36486C7.26699 2.07986 7.26699 3.24403 6.55199 3.95903C5.82783 4.6832 4.67283 4.6832 3.95783 3.95903ZM2.50033 13.6665V6.3332C2.50033 5.82903 2.08783 5.41653 1.58366 5.41653C1.07949 5.41653 0.666992 5.82903 0.666992 6.3332V13.6665C0.666992 16.1965 2.72033 18.2499 5.25033 18.2499H9.83366C10.3378 18.2499 10.7503 17.8374 10.7503 17.3332C10.7503 16.829 10.3378 16.4165 9.83366 16.4165H5.25033C3.72866 16.4165 2.50033 15.1882 2.50033 13.6665ZM14.6737 16.7374L11.2178 13.2815C10.8787 12.9424 10.4112 12.7499 9.92533 12.7499H7.54199V9.37653C8.54116 10.1924 9.98032 10.9349 11.392 11.2282C12.0062 11.3565 12.5837 10.8982 12.5837 10.2749C12.5837 9.78903 12.2262 9.39486 11.7403 9.31236C10.4387 9.09236 9.10033 8.38653 8.30283 7.50653L7.01949 6.0857C6.84533 5.8932 6.62533 5.73736 6.38699 5.62736C6.12116 5.49903 5.81866 5.41653 5.50699 5.41653H5.47949C4.34283 5.41653 3.41699 6.34236 3.41699 7.47903V12.7499C3.41699 14.2715 4.64533 15.4999 6.16699 15.4999H10.8145L13.3628 18.0482C13.7203 18.4057 14.3162 18.4057 14.6737 18.0482C15.0403 17.6907 15.0403 17.104 14.6737 16.7374Z" fill="#8DD3BB"/>
</svg>
